<?xml version="1.0" standalone="no"?><!DOCTYPE svg PUBLIC "-//W3C//DTD SVG 1.1//EN" "http://www.w3.org/Graphics/SVG/1.1/DTD/svg11.dtd"><svg class="icon" width="128px" height="128.00px" viewBox="0 0 1024 1024" version="1.1" xmlns="http://www.w3.org/2000/svg"><path d="M935.867733 48.674133H258.116267a48.674133 48.674133 0 0 0-48.674134 48.7424v68.266667h611.328a48.674133 48.674133 0 0 1 51.677867 48.605867v565.111466h63.351467a48.674133 48.674133 0 0 0 53.0432-48.674133V97.416533a48.674133 48.674133 0 0 0-53.0432-48.7424z" fill="#4c4c4c" /><path d="M102.331733 261.461333h614.4a68.266667 68.266667 0 0 1 68.266667 68.266667v614.4a68.266667 68.266667 0 0 1-68.266667 68.266667h-614.4a68.266667 68.266667 0 0 1-68.266666-68.266667v-614.4a68.266667 68.266667 0 0 1 68.266666-68.266667z m34.6112 216.746667v102.4h102.4v-102.4h-102.4zM375.534933 477.866667v102.4h311.364267V477.866667H375.534933z m0 204.8v102.4h313.344V682.666667H375.534933z m-238.592 0.682666v102.4h102.4v-102.4h-102.4z" fill="#4c4c4c" /></svg>